<svg xmlns="http://www.w3.org/2000/svg" viewBox="0 0 40 40">
  <rect width="40" height="40" rx="8" fill="#FF0000"/>
  <path fill="#fff" d="M30.5 15.5s-.3-2-1.3-2.8c-1.2-1.2-2.5-1.2-3.1-1.3C23.7 11.2 20 11.2 20 11.2s-3.7 0-6.1.2c-.6.1-1.9.1-3.1 1.3-1 .8-1.3 2.8-1.3 2.8S9.3 17.8 9.3 20v1.8c0 2.2.2 4.5.2 4.5s.3 2 1.3 2.8c1.2 1.2 2.7 1.1 3.4 1.2C16.5 30.5 20 30.5 20 30.5s3.7 0 6.1-.2c.6-.1 1.9-.1 3.1-1.3 1-.8 1.3-2.8 1.3-2.8s.2-2.3.2-4.5V20c0-2.2-.2-4.5-.2-4.5zM17.7 24V16.5l7.8 3.8-7.8 3.7z"/>
</svg>
